<svg xmlns="http://www.w3.org/2000/svg" width="40" height="40" viewBox="0 0 155 142">
    <path fill="#fff"
          d="M33 95H23l-5 1-4 1-6 4a22 22 0 0 0-6 17c0 12 11 20 23 22 13 2 30-19 30-19l14-18 14-19 10-14 12-17 7-11 7-9v-1l13-20 6-11-26 31-8 10-9 11-12 15-11 13-8 10-11 12-8 8-8 8-7 6c-8 3-13-3-15-5v-9c2-6 8-10 18-16Zm37 39c2 2 8 4 13 5h33l15-5a46 46 0 0 0 15-14l5-11 2-9c0-4-2-8-4-11l-9-9-11-6s8-2 10-4c5-2 4-2 7-5l6-8c2-3 1-5 2-9 0-4-1-6-3-9l-5-9-7-6-8-5c-4-3-8-4-11-4l-14-2a134 134 0 0 0-43 2 172 172 0 0 0-35 14c-4 1-6 4-6 4a58 58 0 0 0 13 3l10 4a99 99 0 0 0 18 9l-3-4-5-5-6-5c-5-4-4-3-2-4a78 78 0 0 1 15-5l12-3h20l14 1c3 1 9 1 12 3 3 1 4 2 5 4l7 7 4 6c1 4 0 8-2 12l-6 7c-4 4-12 8-12 8l-6 4 6 4 13 12c9 9 7 13 1 22l-9 9-15 8-12 2-11 2H70Z"/>
</svg>